<mxfile host="app.diagrams.net" modified="2022-05-24T14:31:49.864Z" agent="5.0 (Windows NT 10.0; Win64; x64) AppleWebKit/537.36 (KHTML, like Gecko) Chrome/101.0.0.0 Safari/537.36" etag="ZfIqCS22PWqlfDlQz_qy" version="18.1.2" type="github">
  <diagram id="rQmpU_IdHo0zu_zOlAoI" name="Page-1">
    <mxGraphModel dx="924" dy="620" grid="1" gridSize="10" guides="1" tooltips="1" connect="1" arrows="1" fold="1" page="1" pageScale="1" pageWidth="827" pageHeight="1169" math="0" shadow="0">
      <root>
        <mxCell id="0" />
        <mxCell id="1" parent="0" />
        <mxCell id="3F-fGwANwvN5eIpHHkek-5" style="edgeStyle=orthogonalEdgeStyle;rounded=0;orthogonalLoop=1;jettySize=auto;html=1;entryX=0.5;entryY=0;entryDx=0;entryDy=0;" edge="1" parent="1" source="3F-fGwANwvN5eIpHHkek-1" target="3F-fGwANwvN5eIpHHkek-2">
          <mxGeometry relative="1" as="geometry" />
        </mxCell>
        <mxCell id="3F-fGwANwvN5eIpHHkek-1" value="start" style="strokeWidth=2;html=1;shape=mxgraph.flowchart.terminator;whiteSpace=wrap;" vertex="1" parent="1">
          <mxGeometry x="40" y="40" width="100" height="60" as="geometry" />
        </mxCell>
        <mxCell id="3F-fGwANwvN5eIpHHkek-7" style="edgeStyle=orthogonalEdgeStyle;rounded=0;orthogonalLoop=1;jettySize=auto;html=1;entryX=0.493;entryY=-0.037;entryDx=0;entryDy=0;entryPerimeter=0;" edge="1" parent="1" source="3F-fGwANwvN5eIpHHkek-2" target="3F-fGwANwvN5eIpHHkek-10">
          <mxGeometry relative="1" as="geometry" />
        </mxCell>
        <mxCell id="3F-fGwANwvN5eIpHHkek-2" value="" style="verticalLabelPosition=bottom;verticalAlign=top;html=1;shape=hexagon;perimeter=hexagonPerimeter2;arcSize=6;size=0.27;" vertex="1" parent="1">
          <mxGeometry x="35" y="124" width="110" height="70" as="geometry" />
        </mxCell>
        <mxCell id="3F-fGwANwvN5eIpHHkek-3" value="clock_t start, end;&#xa;	double result;" style="text;html=1;strokeColor=none;fillColor=none;align=center;verticalAlign=middle;whiteSpace=wrap;rounded=0;" vertex="1" parent="1">
          <mxGeometry x="40" y="145" width="100" height="30" as="geometry" />
        </mxCell>
        <mxCell id="3F-fGwANwvN5eIpHHkek-8" style="edgeStyle=orthogonalEdgeStyle;rounded=0;orthogonalLoop=1;jettySize=auto;html=1;entryX=0.5;entryY=0;entryDx=0;entryDy=0;" edge="1" parent="1" source="3F-fGwANwvN5eIpHHkek-6" target="3F-fGwANwvN5eIpHHkek-9">
          <mxGeometry relative="1" as="geometry">
            <mxPoint x="90" y="310" as="targetPoint" />
          </mxGeometry>
        </mxCell>
        <mxCell id="3F-fGwANwvN5eIpHHkek-6" value="int i = 0,&amp;nbsp; i++" style="strokeWidth=2;html=1;shape=mxgraph.flowchart.loop_limit;whiteSpace=wrap;" vertex="1" parent="1">
          <mxGeometry x="40.5" y="280" width="100" height="60" as="geometry" />
        </mxCell>
        <mxCell id="3F-fGwANwvN5eIpHHkek-13" style="edgeStyle=orthogonalEdgeStyle;rounded=0;orthogonalLoop=1;jettySize=auto;html=1;entryX=0.5;entryY=1;entryDx=0;entryDy=0;entryPerimeter=0;" edge="1" parent="1" source="3F-fGwANwvN5eIpHHkek-9" target="3F-fGwANwvN5eIpHHkek-12">
          <mxGeometry relative="1" as="geometry" />
        </mxCell>
        <mxCell id="3F-fGwANwvN5eIpHHkek-9" value="prime_number1(1000);" style="rounded=1;whiteSpace=wrap;html=1;absoluteArcSize=1;arcSize=14;strokeWidth=2;" vertex="1" parent="1">
          <mxGeometry x="22.5" y="365" width="135" height="40" as="geometry" />
        </mxCell>
        <mxCell id="3F-fGwANwvN5eIpHHkek-11" style="edgeStyle=orthogonalEdgeStyle;rounded=0;orthogonalLoop=1;jettySize=auto;html=1;entryX=0.5;entryY=0;entryDx=0;entryDy=0;entryPerimeter=0;" edge="1" parent="1" source="3F-fGwANwvN5eIpHHkek-10" target="3F-fGwANwvN5eIpHHkek-6">
          <mxGeometry relative="1" as="geometry" />
        </mxCell>
        <mxCell id="3F-fGwANwvN5eIpHHkek-10" value="start = clock();" style="rounded=1;whiteSpace=wrap;html=1;absoluteArcSize=1;arcSize=14;strokeWidth=2;" vertex="1" parent="1">
          <mxGeometry x="36" y="221" width="109" height="30" as="geometry" />
        </mxCell>
        <mxCell id="3F-fGwANwvN5eIpHHkek-16" style="edgeStyle=orthogonalEdgeStyle;rounded=0;orthogonalLoop=1;jettySize=auto;html=1;entryX=0.5;entryY=0;entryDx=0;entryDy=0;" edge="1" parent="1" source="3F-fGwANwvN5eIpHHkek-12" target="3F-fGwANwvN5eIpHHkek-15">
          <mxGeometry relative="1" as="geometry" />
        </mxCell>
        <mxCell id="3F-fGwANwvN5eIpHHkek-12" value="" style="strokeWidth=2;html=1;shape=mxgraph.flowchart.loop_limit;whiteSpace=wrap;rotation=-180;" vertex="1" parent="1">
          <mxGeometry x="40" y="430" width="100" height="60" as="geometry" />
        </mxCell>
        <mxCell id="3F-fGwANwvN5eIpHHkek-14" value="&lt;span style=&quot;color: rgb(0, 0, 0); font-family: Helvetica; font-size: 12px; font-style: normal; font-variant-ligatures: normal; font-variant-caps: normal; font-weight: 400; letter-spacing: normal; orphans: 2; text-align: center; text-indent: 0px; text-transform: none; widows: 2; word-spacing: 0px; -webkit-text-stroke-width: 0px; background-color: rgb(248, 249, 250); text-decoration-thickness: initial; text-decoration-style: initial; text-decoration-color: initial; float: none; display: inline !important;&quot;&gt;i &amp;lt; 100&lt;/span&gt;" style="text;html=1;strokeColor=none;fillColor=none;align=center;verticalAlign=middle;whiteSpace=wrap;rounded=0;" vertex="1" parent="1">
          <mxGeometry x="60.5" y="445" width="60" height="30" as="geometry" />
        </mxCell>
        <mxCell id="3F-fGwANwvN5eIpHHkek-18" style="edgeStyle=orthogonalEdgeStyle;rounded=0;orthogonalLoop=1;jettySize=auto;html=1;entryX=0.5;entryY=0;entryDx=0;entryDy=0;entryPerimeter=0;" edge="1" parent="1" source="3F-fGwANwvN5eIpHHkek-15" target="3F-fGwANwvN5eIpHHkek-17">
          <mxGeometry relative="1" as="geometry" />
        </mxCell>
        <mxCell id="3F-fGwANwvN5eIpHHkek-15" value="end = clock();&#xa;	result = (double)(end - start);" style="rounded=1;whiteSpace=wrap;html=1;absoluteArcSize=1;arcSize=14;strokeWidth=2;" vertex="1" parent="1">
          <mxGeometry x="5.5" y="520" width="170" height="60" as="geometry" />
        </mxCell>
        <mxCell id="3F-fGwANwvN5eIpHHkek-40" style="edgeStyle=orthogonalEdgeStyle;rounded=0;orthogonalLoop=1;jettySize=auto;html=1;" edge="1" parent="1" source="3F-fGwANwvN5eIpHHkek-17" target="3F-fGwANwvN5eIpHHkek-33">
          <mxGeometry relative="1" as="geometry" />
        </mxCell>
        <mxCell id="3F-fGwANwvN5eIpHHkek-17" value="printf(&quot;0 time : %lf\n&quot;, result / CLOCKS_PER_SEC);" style="strokeWidth=2;html=1;shape=mxgraph.flowchart.document2;whiteSpace=wrap;size=0.25;" vertex="1" parent="1">
          <mxGeometry x="10.75" y="610" width="159.5" height="60" as="geometry" />
        </mxCell>
        <mxCell id="3F-fGwANwvN5eIpHHkek-28" style="edgeStyle=orthogonalEdgeStyle;rounded=0;orthogonalLoop=1;jettySize=auto;html=1;entryX=0.5;entryY=0;entryDx=0;entryDy=0;" edge="1" parent="1" source="3F-fGwANwvN5eIpHHkek-29" target="3F-fGwANwvN5eIpHHkek-31">
          <mxGeometry relative="1" as="geometry">
            <mxPoint x="89.5" y="779" as="targetPoint" />
          </mxGeometry>
        </mxCell>
        <mxCell id="3F-fGwANwvN5eIpHHkek-29" value="int i = 0,&amp;nbsp; i++" style="strokeWidth=2;html=1;shape=mxgraph.flowchart.loop_limit;whiteSpace=wrap;" vertex="1" parent="1">
          <mxGeometry x="40" y="749" width="100" height="60" as="geometry" />
        </mxCell>
        <mxCell id="3F-fGwANwvN5eIpHHkek-30" style="edgeStyle=orthogonalEdgeStyle;rounded=0;orthogonalLoop=1;jettySize=auto;html=1;entryX=0.5;entryY=1;entryDx=0;entryDy=0;entryPerimeter=0;" edge="1" parent="1" source="3F-fGwANwvN5eIpHHkek-31" target="3F-fGwANwvN5eIpHHkek-35">
          <mxGeometry relative="1" as="geometry" />
        </mxCell>
        <mxCell id="3F-fGwANwvN5eIpHHkek-31" value="is_prime_number1();" style="rounded=1;whiteSpace=wrap;html=1;absoluteArcSize=1;arcSize=14;strokeWidth=2;" vertex="1" parent="1">
          <mxGeometry x="22" y="834" width="135" height="40" as="geometry" />
        </mxCell>
        <mxCell id="3F-fGwANwvN5eIpHHkek-32" style="edgeStyle=orthogonalEdgeStyle;rounded=0;orthogonalLoop=1;jettySize=auto;html=1;entryX=0.5;entryY=0;entryDx=0;entryDy=0;entryPerimeter=0;" edge="1" parent="1" source="3F-fGwANwvN5eIpHHkek-33" target="3F-fGwANwvN5eIpHHkek-29">
          <mxGeometry relative="1" as="geometry" />
        </mxCell>
        <mxCell id="3F-fGwANwvN5eIpHHkek-33" value="start = clock();" style="rounded=1;whiteSpace=wrap;html=1;absoluteArcSize=1;arcSize=14;strokeWidth=2;" vertex="1" parent="1">
          <mxGeometry x="36" y="699" width="109" height="30" as="geometry" />
        </mxCell>
        <mxCell id="3F-fGwANwvN5eIpHHkek-34" style="edgeStyle=orthogonalEdgeStyle;rounded=0;orthogonalLoop=1;jettySize=auto;html=1;entryX=0.5;entryY=0;entryDx=0;entryDy=0;" edge="1" parent="1" source="3F-fGwANwvN5eIpHHkek-35" target="3F-fGwANwvN5eIpHHkek-39">
          <mxGeometry relative="1" as="geometry">
            <mxPoint x="90" y="989" as="targetPoint" />
          </mxGeometry>
        </mxCell>
        <mxCell id="3F-fGwANwvN5eIpHHkek-35" value="" style="strokeWidth=2;html=1;shape=mxgraph.flowchart.loop_limit;whiteSpace=wrap;rotation=-180;" vertex="1" parent="1">
          <mxGeometry x="39.5" y="899" width="100" height="60" as="geometry" />
        </mxCell>
        <mxCell id="3F-fGwANwvN5eIpHHkek-36" value="&lt;span style=&quot;color: rgb(0, 0, 0); font-family: Helvetica; font-size: 12px; font-style: normal; font-variant-ligatures: normal; font-variant-caps: normal; font-weight: 400; letter-spacing: normal; orphans: 2; text-align: center; text-indent: 0px; text-transform: none; widows: 2; word-spacing: 0px; -webkit-text-stroke-width: 0px; background-color: rgb(248, 249, 250); text-decoration-thickness: initial; text-decoration-style: initial; text-decoration-color: initial; float: none; display: inline !important;&quot;&gt;i &amp;lt; 100&lt;/span&gt;" style="text;html=1;strokeColor=none;fillColor=none;align=center;verticalAlign=middle;whiteSpace=wrap;rounded=0;" vertex="1" parent="1">
          <mxGeometry x="60" y="914" width="60" height="30" as="geometry" />
        </mxCell>
        <mxCell id="3F-fGwANwvN5eIpHHkek-37" style="edgeStyle=orthogonalEdgeStyle;rounded=0;orthogonalLoop=1;jettySize=auto;html=1;entryX=0.5;entryY=0;entryDx=0;entryDy=0;entryPerimeter=0;exitX=0.5;exitY=1;exitDx=0;exitDy=0;" edge="1" parent="1" target="3F-fGwANwvN5eIpHHkek-38" source="3F-fGwANwvN5eIpHHkek-39">
          <mxGeometry relative="1" as="geometry">
            <mxPoint x="89.97619047619048" y="1049" as="sourcePoint" />
          </mxGeometry>
        </mxCell>
        <mxCell id="3F-fGwANwvN5eIpHHkek-65" style="edgeStyle=orthogonalEdgeStyle;rounded=0;orthogonalLoop=1;jettySize=auto;html=1;entryX=0.5;entryY=0;entryDx=0;entryDy=0;" edge="1" parent="1" source="3F-fGwANwvN5eIpHHkek-38" target="3F-fGwANwvN5eIpHHkek-46">
          <mxGeometry relative="1" as="geometry" />
        </mxCell>
        <mxCell id="3F-fGwANwvN5eIpHHkek-38" value="printf(&quot;1 time : %lf\n&quot;, result / CLOCKS_PER_SEC);" style="strokeWidth=2;html=1;shape=mxgraph.flowchart.document2;whiteSpace=wrap;size=0.25;" vertex="1" parent="1">
          <mxGeometry x="10.25" y="1079" width="159.5" height="60" as="geometry" />
        </mxCell>
        <mxCell id="3F-fGwANwvN5eIpHHkek-39" value="end = clock();&#xa;	result = (double)(end - start);" style="rounded=1;whiteSpace=wrap;html=1;absoluteArcSize=1;arcSize=14;strokeWidth=2;" vertex="1" parent="1">
          <mxGeometry x="5.5" y="990" width="170" height="60" as="geometry" />
        </mxCell>
        <mxCell id="3F-fGwANwvN5eIpHHkek-41" style="edgeStyle=orthogonalEdgeStyle;rounded=0;orthogonalLoop=1;jettySize=auto;html=1;entryX=0.5;entryY=0;entryDx=0;entryDy=0;" edge="1" parent="1" source="3F-fGwANwvN5eIpHHkek-42" target="3F-fGwANwvN5eIpHHkek-44">
          <mxGeometry relative="1" as="geometry">
            <mxPoint x="90" y="1249" as="targetPoint" />
          </mxGeometry>
        </mxCell>
        <mxCell id="3F-fGwANwvN5eIpHHkek-42" value="int i = 0,&amp;nbsp; i++" style="strokeWidth=2;html=1;shape=mxgraph.flowchart.loop_limit;whiteSpace=wrap;" vertex="1" parent="1">
          <mxGeometry x="40.5" y="1219" width="100" height="60" as="geometry" />
        </mxCell>
        <mxCell id="3F-fGwANwvN5eIpHHkek-43" style="edgeStyle=orthogonalEdgeStyle;rounded=0;orthogonalLoop=1;jettySize=auto;html=1;entryX=0.5;entryY=1;entryDx=0;entryDy=0;entryPerimeter=0;" edge="1" parent="1" source="3F-fGwANwvN5eIpHHkek-44" target="3F-fGwANwvN5eIpHHkek-48">
          <mxGeometry relative="1" as="geometry" />
        </mxCell>
        <mxCell id="3F-fGwANwvN5eIpHHkek-44" value="is_prime_number2();" style="rounded=1;whiteSpace=wrap;html=1;absoluteArcSize=1;arcSize=14;strokeWidth=2;" vertex="1" parent="1">
          <mxGeometry x="22.5" y="1304" width="135" height="40" as="geometry" />
        </mxCell>
        <mxCell id="3F-fGwANwvN5eIpHHkek-45" style="edgeStyle=orthogonalEdgeStyle;rounded=0;orthogonalLoop=1;jettySize=auto;html=1;entryX=0.5;entryY=0;entryDx=0;entryDy=0;entryPerimeter=0;" edge="1" parent="1" source="3F-fGwANwvN5eIpHHkek-46" target="3F-fGwANwvN5eIpHHkek-42">
          <mxGeometry relative="1" as="geometry" />
        </mxCell>
        <mxCell id="3F-fGwANwvN5eIpHHkek-46" value="start = clock();" style="rounded=1;whiteSpace=wrap;html=1;absoluteArcSize=1;arcSize=14;strokeWidth=2;" vertex="1" parent="1">
          <mxGeometry x="36" y="1160" width="109" height="30" as="geometry" />
        </mxCell>
        <mxCell id="3F-fGwANwvN5eIpHHkek-47" style="edgeStyle=orthogonalEdgeStyle;rounded=0;orthogonalLoop=1;jettySize=auto;html=1;entryX=0.5;entryY=0;entryDx=0;entryDy=0;" edge="1" parent="1" source="3F-fGwANwvN5eIpHHkek-48" target="3F-fGwANwvN5eIpHHkek-51">
          <mxGeometry relative="1" as="geometry" />
        </mxCell>
        <mxCell id="3F-fGwANwvN5eIpHHkek-48" value="" style="strokeWidth=2;html=1;shape=mxgraph.flowchart.loop_limit;whiteSpace=wrap;rotation=-180;" vertex="1" parent="1">
          <mxGeometry x="40" y="1369" width="100" height="60" as="geometry" />
        </mxCell>
        <mxCell id="3F-fGwANwvN5eIpHHkek-49" value="&lt;span style=&quot;color: rgb(0, 0, 0); font-family: Helvetica; font-size: 12px; font-style: normal; font-variant-ligatures: normal; font-variant-caps: normal; font-weight: 400; letter-spacing: normal; orphans: 2; text-align: center; text-indent: 0px; text-transform: none; widows: 2; word-spacing: 0px; -webkit-text-stroke-width: 0px; background-color: rgb(248, 249, 250); text-decoration-thickness: initial; text-decoration-style: initial; text-decoration-color: initial; float: none; display: inline !important;&quot;&gt;i &amp;lt; 100&lt;/span&gt;" style="text;html=1;strokeColor=none;fillColor=none;align=center;verticalAlign=middle;whiteSpace=wrap;rounded=0;" vertex="1" parent="1">
          <mxGeometry x="60.5" y="1384" width="60" height="30" as="geometry" />
        </mxCell>
        <mxCell id="3F-fGwANwvN5eIpHHkek-50" style="edgeStyle=orthogonalEdgeStyle;rounded=0;orthogonalLoop=1;jettySize=auto;html=1;entryX=0.5;entryY=0;entryDx=0;entryDy=0;entryPerimeter=0;" edge="1" parent="1" source="3F-fGwANwvN5eIpHHkek-51" target="3F-fGwANwvN5eIpHHkek-52">
          <mxGeometry relative="1" as="geometry" />
        </mxCell>
        <mxCell id="3F-fGwANwvN5eIpHHkek-51" value="end = clock();&#xa;	result = (double)(end - start);" style="rounded=1;whiteSpace=wrap;html=1;absoluteArcSize=1;arcSize=14;strokeWidth=2;" vertex="1" parent="1">
          <mxGeometry x="5.5" y="1459" width="170" height="60" as="geometry" />
        </mxCell>
        <mxCell id="3F-fGwANwvN5eIpHHkek-66" style="edgeStyle=orthogonalEdgeStyle;rounded=0;orthogonalLoop=1;jettySize=auto;html=1;entryX=0.5;entryY=0;entryDx=0;entryDy=0;" edge="1" parent="1" source="3F-fGwANwvN5eIpHHkek-52" target="3F-fGwANwvN5eIpHHkek-58">
          <mxGeometry relative="1" as="geometry" />
        </mxCell>
        <mxCell id="3F-fGwANwvN5eIpHHkek-52" value="printf(&quot;2 time : %lf\n&quot;, result / CLOCKS_PER_SEC);" style="strokeWidth=2;html=1;shape=mxgraph.flowchart.document2;whiteSpace=wrap;size=0.25;" vertex="1" parent="1">
          <mxGeometry x="10.75" y="1549" width="159.5" height="60" as="geometry" />
        </mxCell>
        <mxCell id="3F-fGwANwvN5eIpHHkek-53" style="edgeStyle=orthogonalEdgeStyle;rounded=0;orthogonalLoop=1;jettySize=auto;html=1;entryX=0.5;entryY=0;entryDx=0;entryDy=0;" edge="1" parent="1" source="3F-fGwANwvN5eIpHHkek-54" target="3F-fGwANwvN5eIpHHkek-56">
          <mxGeometry relative="1" as="geometry">
            <mxPoint x="91" y="1719" as="targetPoint" />
          </mxGeometry>
        </mxCell>
        <mxCell id="3F-fGwANwvN5eIpHHkek-54" value="int i = 0,&amp;nbsp; i++" style="strokeWidth=2;html=1;shape=mxgraph.flowchart.loop_limit;whiteSpace=wrap;" vertex="1" parent="1">
          <mxGeometry x="41.5" y="1689" width="100" height="60" as="geometry" />
        </mxCell>
        <mxCell id="3F-fGwANwvN5eIpHHkek-55" style="edgeStyle=orthogonalEdgeStyle;rounded=0;orthogonalLoop=1;jettySize=auto;html=1;entryX=0.5;entryY=1;entryDx=0;entryDy=0;entryPerimeter=0;" edge="1" parent="1" source="3F-fGwANwvN5eIpHHkek-56" target="3F-fGwANwvN5eIpHHkek-60">
          <mxGeometry relative="1" as="geometry" />
        </mxCell>
        <mxCell id="3F-fGwANwvN5eIpHHkek-56" value="is_prime_number3();" style="rounded=1;whiteSpace=wrap;html=1;absoluteArcSize=1;arcSize=14;strokeWidth=2;" vertex="1" parent="1">
          <mxGeometry x="23.5" y="1774" width="135" height="40" as="geometry" />
        </mxCell>
        <mxCell id="3F-fGwANwvN5eIpHHkek-57" style="edgeStyle=orthogonalEdgeStyle;rounded=0;orthogonalLoop=1;jettySize=auto;html=1;entryX=0.5;entryY=0;entryDx=0;entryDy=0;entryPerimeter=0;" edge="1" parent="1" source="3F-fGwANwvN5eIpHHkek-58" target="3F-fGwANwvN5eIpHHkek-54">
          <mxGeometry relative="1" as="geometry" />
        </mxCell>
        <mxCell id="3F-fGwANwvN5eIpHHkek-58" value="start = clock();" style="rounded=1;whiteSpace=wrap;html=1;absoluteArcSize=1;arcSize=14;strokeWidth=2;" vertex="1" parent="1">
          <mxGeometry x="37" y="1630" width="109" height="30" as="geometry" />
        </mxCell>
        <mxCell id="3F-fGwANwvN5eIpHHkek-59" style="edgeStyle=orthogonalEdgeStyle;rounded=0;orthogonalLoop=1;jettySize=auto;html=1;entryX=0.5;entryY=0;entryDx=0;entryDy=0;" edge="1" parent="1" source="3F-fGwANwvN5eIpHHkek-60" target="3F-fGwANwvN5eIpHHkek-63">
          <mxGeometry relative="1" as="geometry" />
        </mxCell>
        <mxCell id="3F-fGwANwvN5eIpHHkek-60" value="" style="strokeWidth=2;html=1;shape=mxgraph.flowchart.loop_limit;whiteSpace=wrap;rotation=-180;" vertex="1" parent="1">
          <mxGeometry x="41" y="1839" width="100" height="60" as="geometry" />
        </mxCell>
        <mxCell id="3F-fGwANwvN5eIpHHkek-61" value="&lt;span style=&quot;color: rgb(0, 0, 0); font-family: Helvetica; font-size: 12px; font-style: normal; font-variant-ligatures: normal; font-variant-caps: normal; font-weight: 400; letter-spacing: normal; orphans: 2; text-align: center; text-indent: 0px; text-transform: none; widows: 2; word-spacing: 0px; -webkit-text-stroke-width: 0px; background-color: rgb(248, 249, 250); text-decoration-thickness: initial; text-decoration-style: initial; text-decoration-color: initial; float: none; display: inline !important;&quot;&gt;i &amp;lt; 100&lt;/span&gt;" style="text;html=1;strokeColor=none;fillColor=none;align=center;verticalAlign=middle;whiteSpace=wrap;rounded=0;" vertex="1" parent="1">
          <mxGeometry x="61.5" y="1854" width="60" height="30" as="geometry" />
        </mxCell>
        <mxCell id="3F-fGwANwvN5eIpHHkek-62" style="edgeStyle=orthogonalEdgeStyle;rounded=0;orthogonalLoop=1;jettySize=auto;html=1;entryX=0.5;entryY=0;entryDx=0;entryDy=0;entryPerimeter=0;" edge="1" parent="1" source="3F-fGwANwvN5eIpHHkek-63" target="3F-fGwANwvN5eIpHHkek-64">
          <mxGeometry relative="1" as="geometry" />
        </mxCell>
        <mxCell id="3F-fGwANwvN5eIpHHkek-63" value="end = clock();&#xa;	result = (double)(end - start);" style="rounded=1;whiteSpace=wrap;html=1;absoluteArcSize=1;arcSize=14;strokeWidth=2;" vertex="1" parent="1">
          <mxGeometry x="6.5" y="1929" width="170" height="60" as="geometry" />
        </mxCell>
        <mxCell id="3F-fGwANwvN5eIpHHkek-67" style="edgeStyle=orthogonalEdgeStyle;rounded=0;orthogonalLoop=1;jettySize=auto;html=1;" edge="1" parent="1" source="3F-fGwANwvN5eIpHHkek-64" target="3F-fGwANwvN5eIpHHkek-68">
          <mxGeometry relative="1" as="geometry">
            <mxPoint x="91.5" y="2120" as="targetPoint" />
          </mxGeometry>
        </mxCell>
        <mxCell id="3F-fGwANwvN5eIpHHkek-64" value="printf(&quot;3 time : %lf\n&quot;, result / CLOCKS_PER_SEC);" style="strokeWidth=2;html=1;shape=mxgraph.flowchart.document2;whiteSpace=wrap;size=0.25;" vertex="1" parent="1">
          <mxGeometry x="11.75" y="2019" width="159.5" height="60" as="geometry" />
        </mxCell>
        <mxCell id="3F-fGwANwvN5eIpHHkek-68" value="end" style="strokeWidth=2;html=1;shape=mxgraph.flowchart.terminator;whiteSpace=wrap;" vertex="1" parent="1">
          <mxGeometry x="41.5" y="2110" width="100" height="60" as="geometry" />
        </mxCell>
        <mxCell id="3F-fGwANwvN5eIpHHkek-70" style="edgeStyle=orthogonalEdgeStyle;rounded=0;orthogonalLoop=1;jettySize=auto;html=1;entryX=0.5;entryY=0;entryDx=0;entryDy=0;" edge="1" parent="1" source="3F-fGwANwvN5eIpHHkek-69" target="3F-fGwANwvN5eIpHHkek-73">
          <mxGeometry relative="1" as="geometry">
            <mxPoint x="325" y="190" as="targetPoint" />
          </mxGeometry>
        </mxCell>
        <mxCell id="3F-fGwANwvN5eIpHHkek-69" value="void prime_number1(int n)" style="rounded=1;whiteSpace=wrap;html=1;absoluteArcSize=1;arcSize=14;strokeWidth=2;" vertex="1" parent="1">
          <mxGeometry x="250" y="74" width="150" height="50" as="geometry" />
        </mxCell>
        <mxCell id="3F-fGwANwvN5eIpHHkek-72" style="edgeStyle=orthogonalEdgeStyle;rounded=0;orthogonalLoop=1;jettySize=auto;html=1;entryX=0.5;entryY=0;entryDx=0;entryDy=0;entryPerimeter=0;" edge="1" parent="1" source="3F-fGwANwvN5eIpHHkek-71" target="3F-fGwANwvN5eIpHHkek-86">
          <mxGeometry relative="1" as="geometry">
            <mxPoint x="530.0000000000002" y="180" as="targetPoint" />
          </mxGeometry>
        </mxCell>
        <mxCell id="3F-fGwANwvN5eIpHHkek-71" value="int prime_number(int n)" style="rounded=1;whiteSpace=wrap;html=1;absoluteArcSize=1;arcSize=14;strokeWidth=2;" vertex="1" parent="1">
          <mxGeometry x="460" y="74" width="140" height="50" as="geometry" />
        </mxCell>
        <mxCell id="3F-fGwANwvN5eIpHHkek-76" style="edgeStyle=orthogonalEdgeStyle;rounded=0;orthogonalLoop=1;jettySize=auto;html=1;entryX=0.5;entryY=0;entryDx=0;entryDy=0;entryPerimeter=0;" edge="1" parent="1" source="3F-fGwANwvN5eIpHHkek-73" target="3F-fGwANwvN5eIpHHkek-75">
          <mxGeometry relative="1" as="geometry" />
        </mxCell>
        <mxCell id="3F-fGwANwvN5eIpHHkek-73" value="" style="verticalLabelPosition=bottom;verticalAlign=top;html=1;shape=hexagon;perimeter=hexagonPerimeter2;arcSize=6;size=0.27;" vertex="1" parent="1">
          <mxGeometry x="270" y="166" width="109.18" height="69" as="geometry" />
        </mxCell>
        <mxCell id="3F-fGwANwvN5eIpHHkek-74" value="int prime[500];&#xa;	int ptr = 0;" style="text;html=1;strokeColor=none;fillColor=none;align=center;verticalAlign=middle;whiteSpace=wrap;rounded=0;" vertex="1" parent="1">
          <mxGeometry x="282.5" y="185.5" width="85" height="30" as="geometry" />
        </mxCell>
        <mxCell id="3F-fGwANwvN5eIpHHkek-79" style="edgeStyle=orthogonalEdgeStyle;rounded=0;orthogonalLoop=1;jettySize=auto;html=1;" edge="1" parent="1" source="3F-fGwANwvN5eIpHHkek-75" target="3F-fGwANwvN5eIpHHkek-77">
          <mxGeometry relative="1" as="geometry" />
        </mxCell>
        <mxCell id="3F-fGwANwvN5eIpHHkek-75" value="int i = 2, ++i" style="strokeWidth=2;html=1;shape=mxgraph.flowchart.loop_limit;whiteSpace=wrap;" vertex="1" parent="1">
          <mxGeometry x="278.86" y="261" width="90.27" height="40" as="geometry" />
        </mxCell>
        <mxCell id="3F-fGwANwvN5eIpHHkek-78" value="true" style="edgeStyle=orthogonalEdgeStyle;rounded=0;orthogonalLoop=1;jettySize=auto;html=1;entryX=0.5;entryY=0;entryDx=0;entryDy=0;" edge="1" parent="1" source="3F-fGwANwvN5eIpHHkek-77" target="3F-fGwANwvN5eIpHHkek-80">
          <mxGeometry relative="1" as="geometry">
            <mxPoint x="324.59000000000003" y="460" as="targetPoint" />
          </mxGeometry>
        </mxCell>
        <mxCell id="3F-fGwANwvN5eIpHHkek-81" value="false" style="edgeStyle=orthogonalEdgeStyle;rounded=0;orthogonalLoop=1;jettySize=auto;html=1;exitX=1;exitY=0.5;exitDx=0;exitDy=0;exitPerimeter=0;entryX=0;entryY=0.5;entryDx=0;entryDy=0;entryPerimeter=0;" edge="1" parent="1" source="3F-fGwANwvN5eIpHHkek-77" target="3F-fGwANwvN5eIpHHkek-83">
          <mxGeometry relative="1" as="geometry">
            <mxPoint x="420" y="380.2380952380952" as="targetPoint" />
          </mxGeometry>
        </mxCell>
        <mxCell id="3F-fGwANwvN5eIpHHkek-77" value="prime_number(i)" style="strokeWidth=2;html=1;shape=mxgraph.flowchart.decision;whiteSpace=wrap;" vertex="1" parent="1">
          <mxGeometry x="275.00000000000006" y="330" width="100" height="100" as="geometry" />
        </mxCell>
        <mxCell id="3F-fGwANwvN5eIpHHkek-84" style="edgeStyle=orthogonalEdgeStyle;rounded=0;orthogonalLoop=1;jettySize=auto;html=1;entryX=0.5;entryY=1;entryDx=0;entryDy=0;entryPerimeter=0;" edge="1" parent="1" source="3F-fGwANwvN5eIpHHkek-80" target="3F-fGwANwvN5eIpHHkek-83">
          <mxGeometry relative="1" as="geometry" />
        </mxCell>
        <mxCell id="3F-fGwANwvN5eIpHHkek-80" value="prime[ptr++]=i;" style="rounded=1;whiteSpace=wrap;html=1;absoluteArcSize=1;arcSize=14;strokeWidth=2;" vertex="1" parent="1">
          <mxGeometry x="274.59" y="460" width="100" height="30" as="geometry" />
        </mxCell>
        <mxCell id="3F-fGwANwvN5eIpHHkek-83" value="" style="strokeWidth=2;html=1;shape=mxgraph.flowchart.loop_limit;whiteSpace=wrap;rotation=-180;" vertex="1" parent="1">
          <mxGeometry x="281.49" y="525" width="85" height="50" as="geometry" />
        </mxCell>
        <mxCell id="3F-fGwANwvN5eIpHHkek-85" value="i &lt;= n;" style="text;html=1;strokeColor=none;fillColor=none;align=center;verticalAlign=middle;whiteSpace=wrap;rounded=0;" vertex="1" parent="1">
          <mxGeometry x="294" y="535" width="60" height="30" as="geometry" />
        </mxCell>
        <mxCell id="3F-fGwANwvN5eIpHHkek-89" style="edgeStyle=orthogonalEdgeStyle;rounded=0;orthogonalLoop=1;jettySize=auto;html=1;" edge="1" parent="1" source="3F-fGwANwvN5eIpHHkek-86" target="3F-fGwANwvN5eIpHHkek-90">
          <mxGeometry relative="1" as="geometry">
            <mxPoint x="530" y="260" as="targetPoint" />
          </mxGeometry>
        </mxCell>
        <mxCell id="3F-fGwANwvN5eIpHHkek-86" value="int i = 2; i &lt; n; ++i" style="strokeWidth=2;html=1;shape=mxgraph.flowchart.loop_limit;whiteSpace=wrap;" vertex="1" parent="1">
          <mxGeometry x="480" y="161" width="100" height="60" as="geometry" />
        </mxCell>
        <mxCell id="3F-fGwANwvN5eIpHHkek-98" style="edgeStyle=orthogonalEdgeStyle;rounded=0;orthogonalLoop=1;jettySize=auto;html=1;" edge="1" parent="1" source="3F-fGwANwvN5eIpHHkek-87" target="3F-fGwANwvN5eIpHHkek-99">
          <mxGeometry relative="1" as="geometry">
            <mxPoint x="530" y="520" as="targetPoint" />
          </mxGeometry>
        </mxCell>
        <mxCell id="3F-fGwANwvN5eIpHHkek-87" value="" style="strokeWidth=2;html=1;shape=mxgraph.flowchart.loop_limit;whiteSpace=wrap;rotation=-180;" vertex="1" parent="1">
          <mxGeometry x="480" y="430" width="100" height="60" as="geometry" />
        </mxCell>
        <mxCell id="3F-fGwANwvN5eIpHHkek-88" value="&lt;span style=&quot;color: rgb(0, 0, 0); font-family: Helvetica; font-size: 12px; font-style: normal; font-variant-ligatures: normal; font-variant-caps: normal; font-weight: 400; letter-spacing: normal; orphans: 2; text-align: center; text-indent: 0px; text-transform: none; widows: 2; word-spacing: 0px; -webkit-text-stroke-width: 0px; background-color: rgb(248, 249, 250); text-decoration-thickness: initial; text-decoration-style: initial; text-decoration-color: initial; float: none; display: inline !important;&quot;&gt;i &amp;lt; n&lt;/span&gt;" style="text;html=1;strokeColor=none;fillColor=none;align=center;verticalAlign=middle;whiteSpace=wrap;rounded=0;" vertex="1" parent="1">
          <mxGeometry x="500" y="445" width="60" height="30" as="geometry" />
        </mxCell>
        <mxCell id="3F-fGwANwvN5eIpHHkek-91" value="true" style="edgeStyle=orthogonalEdgeStyle;rounded=0;orthogonalLoop=1;jettySize=auto;html=1;entryX=0.5;entryY=0;entryDx=0;entryDy=0;" edge="1" parent="1" source="3F-fGwANwvN5eIpHHkek-90" target="3F-fGwANwvN5eIpHHkek-95">
          <mxGeometry relative="1" as="geometry" />
        </mxCell>
        <mxCell id="3F-fGwANwvN5eIpHHkek-92" value="false" style="edgeStyle=orthogonalEdgeStyle;rounded=0;orthogonalLoop=1;jettySize=auto;html=1;exitX=1;exitY=0.5;exitDx=0;exitDy=0;exitPerimeter=0;entryX=0;entryY=0.583;entryDx=0;entryDy=0;entryPerimeter=0;" edge="1" parent="1" source="3F-fGwANwvN5eIpHHkek-90" target="3F-fGwANwvN5eIpHHkek-87">
          <mxGeometry relative="1" as="geometry" />
        </mxCell>
        <mxCell id="3F-fGwANwvN5eIpHHkek-90" value="(n % i) == 0" style="strokeWidth=2;html=1;shape=mxgraph.flowchart.decision;whiteSpace=wrap;" vertex="1" parent="1">
          <mxGeometry x="480" y="240" width="100" height="100" as="geometry" />
        </mxCell>
        <mxCell id="3F-fGwANwvN5eIpHHkek-97" style="edgeStyle=orthogonalEdgeStyle;rounded=0;orthogonalLoop=1;jettySize=auto;html=1;entryX=0.5;entryY=1;entryDx=0;entryDy=0;entryPerimeter=0;" edge="1" parent="1" source="3F-fGwANwvN5eIpHHkek-95" target="3F-fGwANwvN5eIpHHkek-87">
          <mxGeometry relative="1" as="geometry" />
        </mxCell>
        <mxCell id="3F-fGwANwvN5eIpHHkek-95" value="return 0;" style="rounded=1;whiteSpace=wrap;html=1;absoluteArcSize=1;arcSize=14;strokeWidth=2;" vertex="1" parent="1">
          <mxGeometry x="480" y="365" width="100" height="40" as="geometry" />
        </mxCell>
        <mxCell id="3F-fGwANwvN5eIpHHkek-99" value="return 1;" style="rounded=1;whiteSpace=wrap;html=1;absoluteArcSize=1;arcSize=14;strokeWidth=2;" vertex="1" parent="1">
          <mxGeometry x="480" y="520" width="100" height="30" as="geometry" />
        </mxCell>
        <mxCell id="3F-fGwANwvN5eIpHHkek-101" style="edgeStyle=orthogonalEdgeStyle;rounded=0;orthogonalLoop=1;jettySize=auto;html=1;" edge="1" parent="1" source="3F-fGwANwvN5eIpHHkek-100" target="3F-fGwANwvN5eIpHHkek-102">
          <mxGeometry relative="1" as="geometry">
            <mxPoint x="320" y="729.9999999999998" as="targetPoint" />
          </mxGeometry>
        </mxCell>
        <mxCell id="3F-fGwANwvN5eIpHHkek-100" value="void is_prime_number1()" style="rounded=1;whiteSpace=wrap;html=1;absoluteArcSize=1;arcSize=14;strokeWidth=2;" vertex="1" parent="1">
          <mxGeometry x="250" y="624" width="140" height="46" as="geometry" />
        </mxCell>
        <mxCell id="3F-fGwANwvN5eIpHHkek-104" style="edgeStyle=orthogonalEdgeStyle;rounded=0;orthogonalLoop=1;jettySize=auto;html=1;exitX=0.5;exitY=1;exitDx=0;exitDy=0;" edge="1" parent="1" source="3F-fGwANwvN5eIpHHkek-102" target="3F-fGwANwvN5eIpHHkek-105">
          <mxGeometry relative="1" as="geometry">
            <mxPoint x="320" y="819.9999999999998" as="targetPoint" />
          </mxGeometry>
        </mxCell>
        <mxCell id="3F-fGwANwvN5eIpHHkek-102" value="" style="verticalLabelPosition=bottom;verticalAlign=top;html=1;shape=hexagon;perimeter=hexagonPerimeter2;arcSize=6;size=0.27;" vertex="1" parent="1">
          <mxGeometry x="260" y="699" width="120" height="91" as="geometry" />
        </mxCell>
        <mxCell id="3F-fGwANwvN5eIpHHkek-103" value="int check = 1;&#xa;	int i, n = 1000;&#xa;	int prime[500];&#xa;	int ptr = 0;" style="text;html=1;strokeColor=none;fillColor=none;align=center;verticalAlign=middle;whiteSpace=wrap;rounded=0;" vertex="1" parent="1">
          <mxGeometry x="267.29999999999995" y="716.5" width="115.41" height="56" as="geometry" />
        </mxCell>
        <mxCell id="3F-fGwANwvN5eIpHHkek-107" style="edgeStyle=orthogonalEdgeStyle;rounded=0;orthogonalLoop=1;jettySize=auto;html=1;" edge="1" parent="1" source="3F-fGwANwvN5eIpHHkek-105" target="3F-fGwANwvN5eIpHHkek-106">
          <mxGeometry relative="1" as="geometry" />
        </mxCell>
        <mxCell id="3F-fGwANwvN5eIpHHkek-105" value="prime[ptr++] = 2;" style="rounded=1;whiteSpace=wrap;html=1;absoluteArcSize=1;arcSize=14;strokeWidth=2;" vertex="1" parent="1">
          <mxGeometry x="269.13" y="820" width="100" height="40" as="geometry" />
        </mxCell>
        <mxCell id="3F-fGwANwvN5eIpHHkek-113" style="edgeStyle=orthogonalEdgeStyle;rounded=0;orthogonalLoop=1;jettySize=auto;html=1;entryX=0.5;entryY=0;entryDx=0;entryDy=0;entryPerimeter=0;" edge="1" parent="1" source="3F-fGwANwvN5eIpHHkek-106" target="3F-fGwANwvN5eIpHHkek-110">
          <mxGeometry relative="1" as="geometry" />
        </mxCell>
        <mxCell id="3F-fGwANwvN5eIpHHkek-106" value="i = 3, i += 2" style="strokeWidth=2;html=1;shape=mxgraph.flowchart.loop_limit;whiteSpace=wrap;" vertex="1" parent="1">
          <mxGeometry x="270" y="899" width="100" height="60" as="geometry" />
        </mxCell>
        <mxCell id="3F-fGwANwvN5eIpHHkek-108" value="" style="strokeWidth=2;html=1;shape=mxgraph.flowchart.loop_limit;whiteSpace=wrap;rotation=-180;" vertex="1" parent="1">
          <mxGeometry x="270" y="1615" width="100" height="60" as="geometry" />
        </mxCell>
        <mxCell id="3F-fGwANwvN5eIpHHkek-109" value="&lt;span style=&quot;color: rgb(0, 0, 0); font-family: Helvetica; font-size: 12px; font-style: normal; font-variant-ligatures: normal; font-variant-caps: normal; font-weight: 400; letter-spacing: normal; orphans: 2; text-align: center; text-indent: 0px; text-transform: none; widows: 2; word-spacing: 0px; -webkit-text-stroke-width: 0px; background-color: rgb(248, 249, 250); text-decoration-thickness: initial; text-decoration-style: initial; text-decoration-color: initial; float: none; display: inline !important;&quot;&gt;i &amp;lt;= n&lt;/span&gt;" style="text;html=1;strokeColor=none;fillColor=none;align=center;verticalAlign=middle;whiteSpace=wrap;rounded=0;" vertex="1" parent="1">
          <mxGeometry x="289.13" y="1630" width="60" height="30" as="geometry" />
        </mxCell>
        <mxCell id="3F-fGwANwvN5eIpHHkek-115" style="edgeStyle=orthogonalEdgeStyle;rounded=0;orthogonalLoop=1;jettySize=auto;html=1;" edge="1" parent="1" source="3F-fGwANwvN5eIpHHkek-110" target="3F-fGwANwvN5eIpHHkek-114">
          <mxGeometry relative="1" as="geometry" />
        </mxCell>
        <mxCell id="3F-fGwANwvN5eIpHHkek-110" value="int j = 3,j+=2" style="strokeWidth=2;html=1;shape=mxgraph.flowchart.loop_limit;whiteSpace=wrap;" vertex="1" parent="1">
          <mxGeometry x="270" y="980" width="100" height="60" as="geometry" />
        </mxCell>
        <mxCell id="3F-fGwANwvN5eIpHHkek-121" style="edgeStyle=orthogonalEdgeStyle;rounded=0;orthogonalLoop=1;jettySize=auto;html=1;entryX=0.5;entryY=0;entryDx=0;entryDy=0;entryPerimeter=0;" edge="1" parent="1" source="3F-fGwANwvN5eIpHHkek-111" target="3F-fGwANwvN5eIpHHkek-120">
          <mxGeometry relative="1" as="geometry" />
        </mxCell>
        <mxCell id="3F-fGwANwvN5eIpHHkek-111" value="" style="strokeWidth=2;html=1;shape=mxgraph.flowchart.loop_limit;whiteSpace=wrap;rotation=-180;" vertex="1" parent="1">
          <mxGeometry x="270" y="1270" width="100" height="60" as="geometry" />
        </mxCell>
        <mxCell id="3F-fGwANwvN5eIpHHkek-112" value="&amp;nbsp;j &amp;lt; i" style="text;html=1;strokeColor=none;fillColor=none;align=center;verticalAlign=middle;whiteSpace=wrap;rounded=0;" vertex="1" parent="1">
          <mxGeometry x="289.13" y="1285" width="60" height="30" as="geometry" />
        </mxCell>
        <mxCell id="3F-fGwANwvN5eIpHHkek-116" value="true" style="edgeStyle=orthogonalEdgeStyle;rounded=0;orthogonalLoop=1;jettySize=auto;html=1;" edge="1" parent="1" source="3F-fGwANwvN5eIpHHkek-114" target="3F-fGwANwvN5eIpHHkek-117">
          <mxGeometry relative="1" as="geometry">
            <mxPoint x="320" y="1180" as="targetPoint" />
          </mxGeometry>
        </mxCell>
        <mxCell id="3F-fGwANwvN5eIpHHkek-119" value="false" style="edgeStyle=orthogonalEdgeStyle;rounded=0;orthogonalLoop=1;jettySize=auto;html=1;entryX=0;entryY=0.5;entryDx=0;entryDy=0;entryPerimeter=0;" edge="1" parent="1" source="3F-fGwANwvN5eIpHHkek-114" target="3F-fGwANwvN5eIpHHkek-111">
          <mxGeometry relative="1" as="geometry">
            <Array as="points">
              <mxPoint x="390" y="1110" />
              <mxPoint x="390" y="1300" />
            </Array>
          </mxGeometry>
        </mxCell>
        <mxCell id="3F-fGwANwvN5eIpHHkek-114" value="i % j == 0" style="strokeWidth=2;html=1;shape=mxgraph.flowchart.decision;whiteSpace=wrap;" vertex="1" parent="1">
          <mxGeometry x="270" y="1060" width="100" height="100" as="geometry" />
        </mxCell>
        <mxCell id="3F-fGwANwvN5eIpHHkek-118" style="edgeStyle=orthogonalEdgeStyle;rounded=0;orthogonalLoop=1;jettySize=auto;html=1;entryX=0.5;entryY=1;entryDx=0;entryDy=0;entryPerimeter=0;" edge="1" parent="1" source="3F-fGwANwvN5eIpHHkek-117" target="3F-fGwANwvN5eIpHHkek-111">
          <mxGeometry relative="1" as="geometry" />
        </mxCell>
        <mxCell id="3F-fGwANwvN5eIpHHkek-117" value="check = 0;&#xa;				break;" style="rounded=1;whiteSpace=wrap;html=1;absoluteArcSize=1;arcSize=14;strokeWidth=2;" vertex="1" parent="1">
          <mxGeometry x="270" y="1190" width="100" height="51" as="geometry" />
        </mxCell>
        <mxCell id="3F-fGwANwvN5eIpHHkek-122" value="true" style="edgeStyle=orthogonalEdgeStyle;rounded=0;orthogonalLoop=1;jettySize=auto;html=1;entryX=0.5;entryY=0;entryDx=0;entryDy=0;" edge="1" parent="1" source="3F-fGwANwvN5eIpHHkek-120" target="3F-fGwANwvN5eIpHHkek-123">
          <mxGeometry relative="1" as="geometry" />
        </mxCell>
        <mxCell id="3F-fGwANwvN5eIpHHkek-124" value="false" style="edgeStyle=orthogonalEdgeStyle;rounded=0;orthogonalLoop=1;jettySize=auto;html=1;entryX=1;entryY=0.5;entryDx=0;entryDy=0;" edge="1" parent="1" source="3F-fGwANwvN5eIpHHkek-120" target="3F-fGwANwvN5eIpHHkek-126">
          <mxGeometry relative="1" as="geometry">
            <Array as="points">
              <mxPoint x="400" y="1399" />
              <mxPoint x="400" y="1564" />
            </Array>
          </mxGeometry>
        </mxCell>
        <mxCell id="3F-fGwANwvN5eIpHHkek-120" value="check == 1" style="strokeWidth=2;html=1;shape=mxgraph.flowchart.decision;whiteSpace=wrap;" vertex="1" parent="1">
          <mxGeometry x="270" y="1349" width="100" height="100" as="geometry" />
        </mxCell>
        <mxCell id="3F-fGwANwvN5eIpHHkek-125" style="edgeStyle=orthogonalEdgeStyle;rounded=0;orthogonalLoop=1;jettySize=auto;html=1;exitX=0.5;exitY=1;exitDx=0;exitDy=0;entryX=0.5;entryY=0;entryDx=0;entryDy=0;" edge="1" parent="1" source="3F-fGwANwvN5eIpHHkek-123" target="3F-fGwANwvN5eIpHHkek-126">
          <mxGeometry relative="1" as="geometry" />
        </mxCell>
        <mxCell id="3F-fGwANwvN5eIpHHkek-123" value="prime[ptr++] = i;" style="rounded=1;whiteSpace=wrap;html=1;absoluteArcSize=1;arcSize=14;strokeWidth=2;" vertex="1" parent="1">
          <mxGeometry x="270" y="1470" width="100" height="50" as="geometry" />
        </mxCell>
        <mxCell id="3F-fGwANwvN5eIpHHkek-128" style="edgeStyle=orthogonalEdgeStyle;rounded=0;orthogonalLoop=1;jettySize=auto;html=1;entryX=0.5;entryY=1;entryDx=0;entryDy=0;entryPerimeter=0;" edge="1" parent="1" source="3F-fGwANwvN5eIpHHkek-126" target="3F-fGwANwvN5eIpHHkek-108">
          <mxGeometry relative="1" as="geometry" />
        </mxCell>
        <mxCell id="3F-fGwANwvN5eIpHHkek-126" value="check = 1;" style="rounded=1;whiteSpace=wrap;html=1;absoluteArcSize=1;arcSize=14;strokeWidth=2;" vertex="1" parent="1">
          <mxGeometry x="270" y="1549" width="100" height="30" as="geometry" />
        </mxCell>
        <mxCell id="3F-fGwANwvN5eIpHHkek-129" style="edgeStyle=orthogonalEdgeStyle;rounded=0;orthogonalLoop=1;jettySize=auto;html=1;" edge="1" parent="1" source="3F-fGwANwvN5eIpHHkek-130" target="3F-fGwANwvN5eIpHHkek-132">
          <mxGeometry relative="1" as="geometry">
            <mxPoint x="540" y="729.9999999999998" as="targetPoint" />
          </mxGeometry>
        </mxCell>
        <mxCell id="3F-fGwANwvN5eIpHHkek-130" value="void is_prime_number2()" style="rounded=1;whiteSpace=wrap;html=1;absoluteArcSize=1;arcSize=14;strokeWidth=2;" vertex="1" parent="1">
          <mxGeometry x="470" y="624" width="140" height="46" as="geometry" />
        </mxCell>
        <mxCell id="3F-fGwANwvN5eIpHHkek-131" style="edgeStyle=orthogonalEdgeStyle;rounded=0;orthogonalLoop=1;jettySize=auto;html=1;exitX=0.5;exitY=1;exitDx=0;exitDy=0;" edge="1" parent="1" source="3F-fGwANwvN5eIpHHkek-132" target="3F-fGwANwvN5eIpHHkek-135">
          <mxGeometry relative="1" as="geometry">
            <mxPoint x="540" y="819.9999999999998" as="targetPoint" />
          </mxGeometry>
        </mxCell>
        <mxCell id="3F-fGwANwvN5eIpHHkek-132" value="" style="verticalLabelPosition=bottom;verticalAlign=top;html=1;shape=hexagon;perimeter=hexagonPerimeter2;arcSize=6;size=0.27;" vertex="1" parent="1">
          <mxGeometry x="480" y="699" width="120" height="91" as="geometry" />
        </mxCell>
        <mxCell id="3F-fGwANwvN5eIpHHkek-133" value="&lt;div&gt;&lt;span style=&quot;&quot;&gt;	&lt;/span&gt;int i, n;&lt;/div&gt;&lt;div&gt;&lt;span style=&quot;&quot;&gt;	&lt;/span&gt;int prime[500];&lt;/div&gt;&lt;div&gt;&lt;span style=&quot;&quot;&gt;	&lt;/span&gt;int ptr = 0;&lt;/div&gt;" style="text;html=1;strokeColor=none;fillColor=none;align=center;verticalAlign=middle;whiteSpace=wrap;rounded=0;" vertex="1" parent="1">
          <mxGeometry x="487.29999999999995" y="716.5" width="115.41" height="56" as="geometry" />
        </mxCell>
        <mxCell id="3F-fGwANwvN5eIpHHkek-134" style="edgeStyle=orthogonalEdgeStyle;rounded=0;orthogonalLoop=1;jettySize=auto;html=1;" edge="1" parent="1" source="3F-fGwANwvN5eIpHHkek-135" target="3F-fGwANwvN5eIpHHkek-137">
          <mxGeometry relative="1" as="geometry" />
        </mxCell>
        <mxCell id="3F-fGwANwvN5eIpHHkek-135" value="prime[ptr++] = 2;" style="rounded=1;whiteSpace=wrap;html=1;absoluteArcSize=1;arcSize=14;strokeWidth=2;" vertex="1" parent="1">
          <mxGeometry x="489.13" y="820" width="100" height="40" as="geometry" />
        </mxCell>
        <mxCell id="3F-fGwANwvN5eIpHHkek-136" style="edgeStyle=orthogonalEdgeStyle;rounded=0;orthogonalLoop=1;jettySize=auto;html=1;entryX=0.5;entryY=0;entryDx=0;entryDy=0;entryPerimeter=0;" edge="1" parent="1" source="3F-fGwANwvN5eIpHHkek-137" target="3F-fGwANwvN5eIpHHkek-141">
          <mxGeometry relative="1" as="geometry" />
        </mxCell>
        <mxCell id="3F-fGwANwvN5eIpHHkek-137" value="n = 3, n += 2" style="strokeWidth=2;html=1;shape=mxgraph.flowchart.loop_limit;whiteSpace=wrap;" vertex="1" parent="1">
          <mxGeometry x="490" y="899" width="100" height="60" as="geometry" />
        </mxCell>
        <mxCell id="3F-fGwANwvN5eIpHHkek-138" value="" style="strokeWidth=2;html=1;shape=mxgraph.flowchart.loop_limit;whiteSpace=wrap;rotation=-180;" vertex="1" parent="1">
          <mxGeometry x="490" y="1549" width="100" height="60" as="geometry" />
        </mxCell>
        <mxCell id="3F-fGwANwvN5eIpHHkek-139" value="&lt;span style=&quot;color: rgb(0, 0, 0); font-family: Helvetica; font-size: 12px; font-style: normal; font-variant-ligatures: normal; font-variant-caps: normal; font-weight: 400; letter-spacing: normal; orphans: 2; text-align: center; text-indent: 0px; text-transform: none; widows: 2; word-spacing: 0px; -webkit-text-stroke-width: 0px; background-color: rgb(248, 249, 250); text-decoration-thickness: initial; text-decoration-style: initial; text-decoration-color: initial; float: none; display: inline !important;&quot;&gt;n &amp;lt;= 1000&lt;/span&gt;" style="text;html=1;strokeColor=none;fillColor=none;align=center;verticalAlign=middle;whiteSpace=wrap;rounded=0;" vertex="1" parent="1">
          <mxGeometry x="509.13" y="1564" width="60" height="30" as="geometry" />
        </mxCell>
        <mxCell id="3F-fGwANwvN5eIpHHkek-140" style="edgeStyle=orthogonalEdgeStyle;rounded=0;orthogonalLoop=1;jettySize=auto;html=1;" edge="1" parent="1" source="3F-fGwANwvN5eIpHHkek-141" target="3F-fGwANwvN5eIpHHkek-147">
          <mxGeometry relative="1" as="geometry" />
        </mxCell>
        <mxCell id="3F-fGwANwvN5eIpHHkek-141" value="i = 1, i++" style="strokeWidth=2;html=1;shape=mxgraph.flowchart.loop_limit;whiteSpace=wrap;" vertex="1" parent="1">
          <mxGeometry x="490" y="980" width="100" height="60" as="geometry" />
        </mxCell>
        <mxCell id="3F-fGwANwvN5eIpHHkek-142" style="edgeStyle=orthogonalEdgeStyle;rounded=0;orthogonalLoop=1;jettySize=auto;html=1;entryX=0.5;entryY=0;entryDx=0;entryDy=0;entryPerimeter=0;" edge="1" parent="1" source="3F-fGwANwvN5eIpHHkek-143" target="3F-fGwANwvN5eIpHHkek-152">
          <mxGeometry relative="1" as="geometry" />
        </mxCell>
        <mxCell id="3F-fGwANwvN5eIpHHkek-143" value="" style="strokeWidth=2;html=1;shape=mxgraph.flowchart.loop_limit;whiteSpace=wrap;rotation=-180;" vertex="1" parent="1">
          <mxGeometry x="490" y="1270" width="100" height="60" as="geometry" />
        </mxCell>
        <mxCell id="3F-fGwANwvN5eIpHHkek-144" value="i &amp;lt; ptr" style="text;html=1;strokeColor=none;fillColor=none;align=center;verticalAlign=middle;whiteSpace=wrap;rounded=0;" vertex="1" parent="1">
          <mxGeometry x="509.13" y="1285" width="60" height="30" as="geometry" />
        </mxCell>
        <mxCell id="3F-fGwANwvN5eIpHHkek-145" value="true" style="edgeStyle=orthogonalEdgeStyle;rounded=0;orthogonalLoop=1;jettySize=auto;html=1;" edge="1" parent="1" source="3F-fGwANwvN5eIpHHkek-147" target="3F-fGwANwvN5eIpHHkek-149">
          <mxGeometry relative="1" as="geometry">
            <mxPoint x="540" y="1180" as="targetPoint" />
          </mxGeometry>
        </mxCell>
        <mxCell id="3F-fGwANwvN5eIpHHkek-146" value="false" style="edgeStyle=orthogonalEdgeStyle;rounded=0;orthogonalLoop=1;jettySize=auto;html=1;entryX=0;entryY=0.5;entryDx=0;entryDy=0;entryPerimeter=0;" edge="1" parent="1" source="3F-fGwANwvN5eIpHHkek-147" target="3F-fGwANwvN5eIpHHkek-143">
          <mxGeometry relative="1" as="geometry">
            <Array as="points">
              <mxPoint x="610" y="1110" />
              <mxPoint x="610" y="1300" />
            </Array>
          </mxGeometry>
        </mxCell>
        <mxCell id="3F-fGwANwvN5eIpHHkek-147" value="n % prime[i] == 0" style="strokeWidth=2;html=1;shape=mxgraph.flowchart.decision;whiteSpace=wrap;" vertex="1" parent="1">
          <mxGeometry x="490" y="1060" width="100" height="100" as="geometry" />
        </mxCell>
        <mxCell id="3F-fGwANwvN5eIpHHkek-148" style="edgeStyle=orthogonalEdgeStyle;rounded=0;orthogonalLoop=1;jettySize=auto;html=1;entryX=0.5;entryY=1;entryDx=0;entryDy=0;entryPerimeter=0;" edge="1" parent="1" source="3F-fGwANwvN5eIpHHkek-149" target="3F-fGwANwvN5eIpHHkek-143">
          <mxGeometry relative="1" as="geometry" />
        </mxCell>
        <mxCell id="3F-fGwANwvN5eIpHHkek-149" value="break;" style="rounded=1;whiteSpace=wrap;html=1;absoluteArcSize=1;arcSize=14;strokeWidth=2;" vertex="1" parent="1">
          <mxGeometry x="490" y="1190" width="100" height="51" as="geometry" />
        </mxCell>
        <mxCell id="3F-fGwANwvN5eIpHHkek-150" value="true" style="edgeStyle=orthogonalEdgeStyle;rounded=0;orthogonalLoop=1;jettySize=auto;html=1;entryX=0.5;entryY=0;entryDx=0;entryDy=0;" edge="1" parent="1" source="3F-fGwANwvN5eIpHHkek-152" target="3F-fGwANwvN5eIpHHkek-154">
          <mxGeometry relative="1" as="geometry" />
        </mxCell>
        <mxCell id="3F-fGwANwvN5eIpHHkek-151" value="false" style="edgeStyle=orthogonalEdgeStyle;rounded=0;orthogonalLoop=1;jettySize=auto;html=1;entryX=0.008;entryY=0.65;entryDx=0;entryDy=0;entryPerimeter=0;" edge="1" parent="1" source="3F-fGwANwvN5eIpHHkek-152" target="3F-fGwANwvN5eIpHHkek-138">
          <mxGeometry relative="1" as="geometry">
            <Array as="points">
              <mxPoint x="620" y="1399" />
              <mxPoint x="620" y="1570" />
            </Array>
            <mxPoint x="590" y="1564" as="targetPoint" />
          </mxGeometry>
        </mxCell>
        <mxCell id="3F-fGwANwvN5eIpHHkek-152" value="ptr == i" style="strokeWidth=2;html=1;shape=mxgraph.flowchart.decision;whiteSpace=wrap;" vertex="1" parent="1">
          <mxGeometry x="490" y="1349" width="100" height="100" as="geometry" />
        </mxCell>
        <mxCell id="3F-fGwANwvN5eIpHHkek-154" value="prime[ptr++] = n;" style="rounded=1;whiteSpace=wrap;html=1;absoluteArcSize=1;arcSize=14;strokeWidth=2;" vertex="1" parent="1">
          <mxGeometry x="490" y="1480" width="100" height="50" as="geometry" />
        </mxCell>
        <mxCell id="3F-fGwANwvN5eIpHHkek-155" style="edgeStyle=orthogonalEdgeStyle;rounded=0;orthogonalLoop=1;jettySize=auto;html=1;entryX=0.5;entryY=1;entryDx=0;entryDy=0;entryPerimeter=0;exitX=0.5;exitY=1;exitDx=0;exitDy=0;" edge="1" parent="1" source="3F-fGwANwvN5eIpHHkek-154" target="3F-fGwANwvN5eIpHHkek-138">
          <mxGeometry relative="1" as="geometry">
            <mxPoint x="540" y="1579" as="sourcePoint" />
          </mxGeometry>
        </mxCell>
        <mxCell id="3F-fGwANwvN5eIpHHkek-157" style="edgeStyle=orthogonalEdgeStyle;rounded=0;orthogonalLoop=1;jettySize=auto;html=1;" edge="1" parent="1" source="3F-fGwANwvN5eIpHHkek-158" target="3F-fGwANwvN5eIpHHkek-160">
          <mxGeometry relative="1" as="geometry">
            <mxPoint x="730" y="722.4999999999998" as="targetPoint" />
          </mxGeometry>
        </mxCell>
        <mxCell id="3F-fGwANwvN5eIpHHkek-158" value="void is_prime_number3()" style="rounded=1;whiteSpace=wrap;html=1;absoluteArcSize=1;arcSize=14;strokeWidth=2;" vertex="1" parent="1">
          <mxGeometry x="660" y="616.5" width="140" height="46" as="geometry" />
        </mxCell>
        <mxCell id="3F-fGwANwvN5eIpHHkek-159" style="edgeStyle=orthogonalEdgeStyle;rounded=0;orthogonalLoop=1;jettySize=auto;html=1;exitX=0.5;exitY=1;exitDx=0;exitDy=0;" edge="1" parent="1" source="3F-fGwANwvN5eIpHHkek-160" target="3F-fGwANwvN5eIpHHkek-163">
          <mxGeometry relative="1" as="geometry">
            <mxPoint x="730" y="812.4999999999998" as="targetPoint" />
          </mxGeometry>
        </mxCell>
        <mxCell id="3F-fGwANwvN5eIpHHkek-160" value="" style="verticalLabelPosition=bottom;verticalAlign=top;html=1;shape=hexagon;perimeter=hexagonPerimeter2;arcSize=6;size=0.27;" vertex="1" parent="1">
          <mxGeometry x="670" y="691.5" width="120" height="91" as="geometry" />
        </mxCell>
        <mxCell id="3F-fGwANwvN5eIpHHkek-161" value="&lt;div&gt;int i, n;&lt;/div&gt;&lt;div&gt;&lt;span style=&quot;&quot;&gt;	&lt;/span&gt;int prime[500];&lt;/div&gt;&lt;div&gt;&lt;span style=&quot;&quot;&gt;	&lt;/span&gt;int ptr = 0;&lt;/div&gt;" style="text;html=1;strokeColor=none;fillColor=none;align=center;verticalAlign=middle;whiteSpace=wrap;rounded=0;" vertex="1" parent="1">
          <mxGeometry x="677.3" y="709" width="115.41" height="56" as="geometry" />
        </mxCell>
        <mxCell id="3F-fGwANwvN5eIpHHkek-162" style="edgeStyle=orthogonalEdgeStyle;rounded=0;orthogonalLoop=1;jettySize=auto;html=1;" edge="1" parent="1" source="3F-fGwANwvN5eIpHHkek-163" target="3F-fGwANwvN5eIpHHkek-165">
          <mxGeometry relative="1" as="geometry" />
        </mxCell>
        <mxCell id="3F-fGwANwvN5eIpHHkek-163" value="&lt;div&gt;prime[ptr++] = 2;&lt;/div&gt;&lt;div&gt;&lt;span style=&quot;&quot;&gt;	&lt;/span&gt;prime[ptr++] = 3;&lt;/div&gt;" style="rounded=1;whiteSpace=wrap;html=1;absoluteArcSize=1;arcSize=14;strokeWidth=2;" vertex="1" parent="1">
          <mxGeometry x="679.13" y="812.5" width="100" height="40" as="geometry" />
        </mxCell>
        <mxCell id="3F-fGwANwvN5eIpHHkek-164" style="edgeStyle=orthogonalEdgeStyle;rounded=0;orthogonalLoop=1;jettySize=auto;html=1;" edge="1" parent="1" source="3F-fGwANwvN5eIpHHkek-165" target="3F-fGwANwvN5eIpHHkek-183">
          <mxGeometry relative="1" as="geometry">
            <mxPoint x="780" y="990" as="targetPoint" />
          </mxGeometry>
        </mxCell>
        <mxCell id="3F-fGwANwvN5eIpHHkek-165" value="n = 5, n += 2" style="strokeWidth=2;html=1;shape=mxgraph.flowchart.loop_limit;whiteSpace=wrap;" vertex="1" parent="1">
          <mxGeometry x="680" y="891.5" width="100" height="60" as="geometry" />
        </mxCell>
        <mxCell id="3F-fGwANwvN5eIpHHkek-166" value="" style="strokeWidth=2;html=1;shape=mxgraph.flowchart.loop_limit;whiteSpace=wrap;rotation=-180;" vertex="1" parent="1">
          <mxGeometry x="680" y="1648" width="100" height="60" as="geometry" />
        </mxCell>
        <mxCell id="3F-fGwANwvN5eIpHHkek-167" value="&lt;span style=&quot;color: rgb(0, 0, 0); font-family: Helvetica; font-size: 12px; font-style: normal; font-variant-ligatures: normal; font-variant-caps: normal; font-weight: 400; letter-spacing: normal; orphans: 2; text-align: center; text-indent: 0px; text-transform: none; widows: 2; word-spacing: 0px; -webkit-text-stroke-width: 0px; background-color: rgb(248, 249, 250); text-decoration-thickness: initial; text-decoration-style: initial; text-decoration-color: initial; float: none; display: inline !important;&quot;&gt;n &amp;lt;= 1000&lt;/span&gt;" style="text;html=1;strokeColor=none;fillColor=none;align=center;verticalAlign=middle;whiteSpace=wrap;rounded=0;" vertex="1" parent="1">
          <mxGeometry x="699.13" y="1663" width="60" height="30" as="geometry" />
        </mxCell>
        <mxCell id="3F-fGwANwvN5eIpHHkek-168" style="edgeStyle=orthogonalEdgeStyle;rounded=0;orthogonalLoop=1;jettySize=auto;html=1;" edge="1" parent="1" source="3F-fGwANwvN5eIpHHkek-169" target="3F-fGwANwvN5eIpHHkek-175">
          <mxGeometry relative="1" as="geometry" />
        </mxCell>
        <mxCell id="3F-fGwANwvN5eIpHHkek-169" value="i = 1, i++" style="strokeWidth=2;html=1;shape=mxgraph.flowchart.loop_limit;whiteSpace=wrap;" vertex="1" parent="1">
          <mxGeometry x="680" y="1079" width="100" height="60" as="geometry" />
        </mxCell>
        <mxCell id="3F-fGwANwvN5eIpHHkek-170" style="edgeStyle=orthogonalEdgeStyle;rounded=0;orthogonalLoop=1;jettySize=auto;html=1;entryX=0.5;entryY=0;entryDx=0;entryDy=0;entryPerimeter=0;" edge="1" parent="1" source="3F-fGwANwvN5eIpHHkek-171" target="3F-fGwANwvN5eIpHHkek-180">
          <mxGeometry relative="1" as="geometry" />
        </mxCell>
        <mxCell id="3F-fGwANwvN5eIpHHkek-171" value="" style="strokeWidth=2;html=1;shape=mxgraph.flowchart.loop_limit;whiteSpace=wrap;rotation=-180;" vertex="1" parent="1">
          <mxGeometry x="665" y="1369" width="130" height="60" as="geometry" />
        </mxCell>
        <mxCell id="3F-fGwANwvN5eIpHHkek-172" value="&amp;nbsp;prime[i] * prime[i] &amp;lt;= n" style="text;html=1;strokeColor=none;fillColor=none;align=center;verticalAlign=middle;whiteSpace=wrap;rounded=0;" vertex="1" parent="1">
          <mxGeometry x="661.84" y="1380" width="130.87" height="30" as="geometry" />
        </mxCell>
        <mxCell id="3F-fGwANwvN5eIpHHkek-173" value="true" style="edgeStyle=orthogonalEdgeStyle;rounded=0;orthogonalLoop=1;jettySize=auto;html=1;" edge="1" parent="1" source="3F-fGwANwvN5eIpHHkek-175" target="3F-fGwANwvN5eIpHHkek-177">
          <mxGeometry relative="1" as="geometry">
            <mxPoint x="730" y="1279" as="targetPoint" />
          </mxGeometry>
        </mxCell>
        <mxCell id="3F-fGwANwvN5eIpHHkek-174" value="false" style="edgeStyle=orthogonalEdgeStyle;rounded=0;orthogonalLoop=1;jettySize=auto;html=1;entryX=0;entryY=0.5;entryDx=0;entryDy=0;entryPerimeter=0;" edge="1" parent="1" source="3F-fGwANwvN5eIpHHkek-175" target="3F-fGwANwvN5eIpHHkek-171">
          <mxGeometry relative="1" as="geometry">
            <Array as="points">
              <mxPoint x="810" y="1209" />
              <mxPoint x="810" y="1399" />
            </Array>
          </mxGeometry>
        </mxCell>
        <mxCell id="3F-fGwANwvN5eIpHHkek-175" value="n % prime[i] == 0" style="strokeWidth=2;html=1;shape=mxgraph.flowchart.decision;whiteSpace=wrap;" vertex="1" parent="1">
          <mxGeometry x="680" y="1159" width="100" height="100" as="geometry" />
        </mxCell>
        <mxCell id="3F-fGwANwvN5eIpHHkek-176" style="edgeStyle=orthogonalEdgeStyle;rounded=0;orthogonalLoop=1;jettySize=auto;html=1;entryX=0.5;entryY=1;entryDx=0;entryDy=0;entryPerimeter=0;" edge="1" parent="1" source="3F-fGwANwvN5eIpHHkek-177" target="3F-fGwANwvN5eIpHHkek-171">
          <mxGeometry relative="1" as="geometry" />
        </mxCell>
        <mxCell id="3F-fGwANwvN5eIpHHkek-177" value="&lt;div&gt;flag = 1;&lt;/div&gt;&lt;div&gt;&lt;span style=&quot;&quot;&gt;				&lt;/span&gt;break;&lt;/div&gt;" style="rounded=1;whiteSpace=wrap;html=1;absoluteArcSize=1;arcSize=14;strokeWidth=2;" vertex="1" parent="1">
          <mxGeometry x="680" y="1289" width="100" height="51" as="geometry" />
        </mxCell>
        <mxCell id="3F-fGwANwvN5eIpHHkek-178" value="true" style="edgeStyle=orthogonalEdgeStyle;rounded=0;orthogonalLoop=1;jettySize=auto;html=1;entryX=0.5;entryY=0;entryDx=0;entryDy=0;" edge="1" parent="1" source="3F-fGwANwvN5eIpHHkek-180" target="3F-fGwANwvN5eIpHHkek-181">
          <mxGeometry relative="1" as="geometry" />
        </mxCell>
        <mxCell id="3F-fGwANwvN5eIpHHkek-179" value="false" style="edgeStyle=orthogonalEdgeStyle;rounded=0;orthogonalLoop=1;jettySize=auto;html=1;entryX=0.008;entryY=0.65;entryDx=0;entryDy=0;entryPerimeter=0;" edge="1" parent="1" source="3F-fGwANwvN5eIpHHkek-180" target="3F-fGwANwvN5eIpHHkek-166">
          <mxGeometry relative="1" as="geometry">
            <Array as="points">
              <mxPoint x="810" y="1498" />
              <mxPoint x="810" y="1669" />
            </Array>
            <mxPoint x="780" y="1663" as="targetPoint" />
          </mxGeometry>
        </mxCell>
        <mxCell id="3F-fGwANwvN5eIpHHkek-180" value="!flag" style="strokeWidth=2;html=1;shape=mxgraph.flowchart.decision;whiteSpace=wrap;" vertex="1" parent="1">
          <mxGeometry x="680" y="1448" width="100" height="100" as="geometry" />
        </mxCell>
        <mxCell id="3F-fGwANwvN5eIpHHkek-181" value="prime[ptr++] = n;" style="rounded=1;whiteSpace=wrap;html=1;absoluteArcSize=1;arcSize=14;strokeWidth=2;" vertex="1" parent="1">
          <mxGeometry x="680" y="1579" width="100" height="50" as="geometry" />
        </mxCell>
        <mxCell id="3F-fGwANwvN5eIpHHkek-182" style="edgeStyle=orthogonalEdgeStyle;rounded=0;orthogonalLoop=1;jettySize=auto;html=1;entryX=0.5;entryY=1;entryDx=0;entryDy=0;entryPerimeter=0;exitX=0.5;exitY=1;exitDx=0;exitDy=0;" edge="1" parent="1" source="3F-fGwANwvN5eIpHHkek-181" target="3F-fGwANwvN5eIpHHkek-166">
          <mxGeometry relative="1" as="geometry">
            <mxPoint x="730" y="1678" as="sourcePoint" />
          </mxGeometry>
        </mxCell>
        <mxCell id="3F-fGwANwvN5eIpHHkek-186" style="edgeStyle=orthogonalEdgeStyle;rounded=0;orthogonalLoop=1;jettySize=auto;html=1;entryX=0.5;entryY=0;entryDx=0;entryDy=0;entryPerimeter=0;" edge="1" parent="1" source="3F-fGwANwvN5eIpHHkek-183" target="3F-fGwANwvN5eIpHHkek-169">
          <mxGeometry relative="1" as="geometry" />
        </mxCell>
        <mxCell id="3F-fGwANwvN5eIpHHkek-183" value="" style="verticalLabelPosition=bottom;verticalAlign=top;html=1;shape=hexagon;perimeter=hexagonPerimeter2;arcSize=6;size=0.27;" vertex="1" parent="1">
          <mxGeometry x="679.13" y="980" width="100" height="60" as="geometry" />
        </mxCell>
        <mxCell id="3F-fGwANwvN5eIpHHkek-184" value="int flag = 0;" style="text;html=1;strokeColor=none;fillColor=none;align=center;verticalAlign=middle;whiteSpace=wrap;rounded=0;" vertex="1" parent="1">
          <mxGeometry x="699.13" y="995" width="70.87" height="30" as="geometry" />
        </mxCell>
        <mxCell id="3F-fGwANwvN5eIpHHkek-187" style="edgeStyle=orthogonalEdgeStyle;rounded=0;orthogonalLoop=1;jettySize=auto;html=1;exitX=0.25;exitY=1;exitDx=0;exitDy=0;entryX=0.404;entryY=1.1;entryDx=0;entryDy=0;entryPerimeter=0;" edge="1" parent="1" source="3F-fGwANwvN5eIpHHkek-172" target="3F-fGwANwvN5eIpHHkek-172">
          <mxGeometry relative="1" as="geometry" />
        </mxCell>
      </root>
    </mxGraphModel>
  </diagram>
</mxfile>
